<svg width="160" height="100" viewBox="0 0 160 100" fill="none" xmlns="http://www.w3.org/2000/svg">
<circle cx="139.49" cy="83.4358" r="9.98658" fill="#242945"/>
<path d="M54.1211 80.5371H145.289C145.289 83.3838 142.981 85.6915 140.135 85.6915H59.2755C56.4288 85.6915 54.1211 83.3838 54.1211 80.5371Z" fill="#242945"/>
<path d="M16.4297 33.1808C16.4297 27.4874 21.0451 22.8721 26.7384 22.8721H48.3223V75.3821C48.3223 78.2288 46.0146 80.5365 43.1679 80.5365H26.7384C21.0451 80.5365 16.4297 75.9211 16.4297 70.2278V33.1808Z" fill="#FEEEEA"/>
<path d="M5.79883 50.5763C5.79883 44.883 10.4142 40.2676 16.1076 40.2676H32.5371V75.3817C32.5371 78.2283 30.2294 80.536 27.3827 80.536H16.1075C10.4142 80.536 5.79883 75.9207 5.79883 70.2273V50.5763Z" fill="#FEEEEA"/>
<path d="M48 6.44296C48 2.88461 50.8846 0 54.443 0H149.799C153.357 0 156.242 2.88461 156.242 6.44295V75.3825C156.242 78.2292 153.934 80.5369 151.087 80.5369H53.1544C50.3077 80.5369 48 78.2292 48 75.3825V6.44296Z" fill="#F9502E"/>
<circle cx="28.9924" cy="83.4358" r="9.98658" fill="#242945"/>
<rect x="67.1992" y="27.2002" width="71.2" height="8" rx="4" fill="#FD947F"/>
<rect x="67.1992" y="41.5996" width="71.2" height="8" rx="4" fill="#FD947F"/>
<rect x="67.1992" y="56" width="71.2" height="8" rx="4" fill="#FD947F"/>
<path d="M19.6504 33.8253C19.6504 29.5553 23.1119 26.0938 27.3819 26.0938H42.5229C43.9462 26.0938 45.1001 27.2476 45.1001 28.6709V41.2347C45.1001 42.658 43.9462 43.8119 42.5229 43.8119H22.2276C20.8042 43.8119 19.6504 42.658 19.6504 41.2347V33.8253Z" fill="#242945"/>
<circle cx="5.79866" cy="60.5633" r="5.79866" fill="#F9502E"/>
</svg>
