<svg width="317" height="132" viewBox="0 0 317 132" fill="none" xmlns="http://www.w3.org/2000/svg">
<path d="M0 68.5424C0 65.1492 2.75076 62.3984 6.144 62.3984H69.12C72.5132 62.3984 75.264 65.1492 75.264 68.5424V131.134H0V68.5424Z" fill="#FEEEEA"/>
<path d="M62.3281 6.144C62.3281 2.75077 65.0789 0 68.4721 0H131.448C134.841 0 137.592 2.75076 137.592 6.144V86.4H62.3281V6.144Z" fill="#FEEEEA"/>
<path d="M241.656 78.7202C241.656 75.3269 244.407 72.5762 247.8 72.5762H310.776C314.169 72.5762 316.92 75.3269 316.92 78.7202V130.944H241.656V78.7202Z" fill="#FEEEEA"/>
<path d="M195.961 38.5342C195.961 37.2908 196.71 36.17 197.86 35.6951L232.42 21.4126C233.171 21.1021 234.015 21.1021 234.766 21.4126L269.326 35.6951C270.475 36.17 271.225 37.2908 271.225 38.5342V130.944H195.961V38.5342Z" fill="#F96C44"/>
<path d="M45.4316 42.6245C45.4316 39.2312 48.1824 36.4805 51.5756 36.4805H114.552C117.945 36.4805 120.696 39.2312 120.696 42.6245V130.944H45.4316V42.6245Z" fill="#F96C44"/>
<path d="M120.695 61.4392C120.695 59.7426 122.071 58.3672 123.767 58.3672H192.887C194.584 58.3672 195.959 59.7426 195.959 61.4392V130.943H120.695V61.4392Z" fill="#F96C44"/>
<rect x="120.695" y="11.5195" width="75.264" height="70.272" rx="6.144" fill="#F96C44"/>
<rect x="53.8789" y="45.6953" width="26.88" height="12.672" rx="3.072" fill="#F88652"/>
<rect x="53.8809" y="63.7441" width="26.88" height="12.672" rx="3.072" fill="#F88652"/>
<rect x="53.8809" y="81.793" width="26.88" height="12.672" rx="3.072" fill="#F88652"/>
<rect x="53.8789" y="99.8398" width="26.88" height="12.672" rx="3.072" fill="#F88652"/>
<rect x="85.3672" y="45.6953" width="26.88" height="12.672" rx="3.072" fill="#F88652"/>
<rect x="206.328" y="45.6953" width="54.528" height="12.672" rx="3.072" fill="#F88652"/>
<rect x="206.328" y="63.7441" width="54.528" height="12.672" rx="3.072" fill="#F88652"/>
<rect x="206.328" y="81.793" width="54.528" height="12.672" rx="3.072" fill="#F88652"/>
<rect x="206.328" y="99.8398" width="54.528" height="12.672" rx="3.072" fill="#F88652"/>
<rect x="85.3672" y="63.7441" width="26.88" height="12.672" rx="3.072" fill="#F88652"/>
<rect x="85.3672" y="81.793" width="26.88" height="12.672" rx="3.072" fill="#F88652"/>
<rect x="85.3672" y="99.8398" width="26.88" height="12.672" rx="3.072" fill="#F88652"/>
<path d="M129.912 34.1761C129.912 29.9345 133.351 26.4961 137.592 26.4961C141.834 26.4961 145.272 29.9345 145.272 34.1761V43.3921C145.272 45.0887 143.897 46.4641 142.2 46.4641H132.984C131.287 46.4641 129.912 45.0887 129.912 43.3921V34.1761Z" fill="#F88652"/>
<path d="M129.912 60.2874C129.912 56.0459 133.351 52.6074 137.592 52.6074C141.834 52.6074 145.272 56.0459 145.272 60.2874V69.5034C145.272 71.2 143.897 72.5754 142.2 72.5754H132.984C131.287 72.5754 129.912 71.2 129.912 69.5034V60.2874Z" fill="#F88652"/>
<path d="M129.912 86.3987C129.912 82.1572 133.351 78.7188 137.592 78.7188C141.834 78.7188 145.272 82.1572 145.272 86.3987V95.6148C145.272 97.3114 143.897 98.6867 142.2 98.6867H132.984C131.287 98.6867 129.912 97.3114 129.912 95.6147V86.3987Z" fill="#F88652"/>
<path d="M150.648 34.1761C150.648 29.9345 154.087 26.4961 158.328 26.4961C162.57 26.4961 166.008 29.9345 166.008 34.1761V43.3921C166.008 45.0887 164.633 46.4641 162.936 46.4641H153.72C152.024 46.4641 150.648 45.0887 150.648 43.3921V34.1761Z" fill="#F88652"/>
<path d="M150.648 60.2874C150.648 56.0459 154.087 52.6074 158.328 52.6074C162.57 52.6074 166.008 56.0459 166.008 60.2874V69.5034C166.008 71.2 164.633 72.5754 162.936 72.5754H153.72C152.024 72.5754 150.648 71.2 150.648 69.5034V60.2874Z" fill="#F88652"/>
<path d="M150.648 86.3987C150.648 82.1572 154.087 78.7188 158.328 78.7188C162.57 78.7188 166.008 82.1572 166.008 86.3987V95.6148C166.008 97.3114 164.633 98.6867 162.936 98.6867H153.72C152.024 98.6867 150.648 97.3114 150.648 95.6147V86.3987Z" fill="#F88652"/>
<path d="M171.385 34.1761C171.385 29.9345 174.823 26.4961 179.065 26.4961C183.306 26.4961 186.745 29.9345 186.745 34.1761V43.3921C186.745 45.0887 185.369 46.4641 183.673 46.4641H174.457C172.76 46.4641 171.385 45.0887 171.385 43.3921V34.1761Z" fill="#F88652"/>
<path d="M171.383 60.2874C171.383 56.0459 174.821 52.6074 179.063 52.6074C183.304 52.6074 186.743 56.0459 186.743 60.2874V69.5034C186.743 71.2 185.367 72.5754 183.671 72.5754H174.455C172.758 72.5754 171.383 71.2 171.383 69.5034V60.2874Z" fill="#F88652"/>
<path d="M171.385 86.3987C171.385 82.1572 174.823 78.7188 179.065 78.7188C183.306 78.7188 186.745 82.1572 186.745 86.3987V95.6148C186.745 97.3114 185.369 98.6867 183.673 98.6867H174.457C172.76 98.6867 171.385 97.3114 171.385 95.6147V86.3987Z" fill="#F88652"/>
</svg>
