<svg width="20" height="23" viewBox="0 0 20 23" fill="none" xmlns="http://www.w3.org/2000/svg">
<circle cx="10" cy="10.3984" r="8" fill="#F9502E"/>
<mask id="mask0_5628_26400" style="mask-type:alpha" maskUnits="userSpaceOnUse" x="10" y="2" width="8" height="19">
<rect width="8" height="18.2" transform="matrix(1 0 0 -1 10 20.5977)" fill="#D9D9D9"/>
</mask>
<g mask="url(#mask0_5628_26400)">
<path d="M2 10.3984C2 16.9984 10 20.5984 10 20.5984C10 20.5984 18 16.9984 18 10.3984C18 5.98016 14.4183 2.39844 10 2.39844C5.58172 2.39844 2 5.98016 2 10.3984Z" fill="#F9502E"/>
</g>
<path d="M13.1327 7.95312C13.6419 7.95312 14.0709 8.2936 14.2069 8.75879C14.2136 8.78078 14.2192 8.80292 14.2245 8.8252C14.2267 8.83496 14.2294 8.84463 14.2314 8.85449C14.2522 8.95457 14.2592 9.05659 14.2528 9.1582V10.4004C14.6569 10.2318 15.1399 10.3143 15.4657 10.6455C15.8934 11.0804 15.8878 11.7793 15.453 12.207L13.9257 13.71C13.8502 13.7842 13.7653 13.8435 13.6767 13.8916C13.6721 13.8942 13.6676 13.8969 13.663 13.8994C13.6511 13.9057 13.6389 13.9112 13.6269 13.917C13.4777 13.9905 13.3103 14.0332 13.1327 14.0332C12.5143 14.033 12.0136 13.5315 12.0136 12.9131V11.7666L10.0644 13.6836C9.85978 13.905 9.56826 14.0449 9.24307 14.0449C8.62451 14.0449 8.12295 13.5434 8.12295 12.9248V11.7422L6.12198 13.7109C5.68093 14.1445 4.97166 14.1383 4.53799 13.6973C4.10436 13.2562 4.11066 12.547 4.55167 12.1133L8.44815 8.28125C8.78258 7.95243 9.27094 7.87704 9.67667 8.05176C10.0799 8.22124 10.3632 8.62017 10.3632 9.08496V10.2119L12.329 8.2793C12.5355 8.07628 12.8002 7.96905 13.0683 7.95605C13.0896 7.95484 13.1111 7.95313 13.1327 7.95312Z" fill="white"/>
</svg>
