<svg width="24" height="24" viewBox="0 0 24 24" fill="none" xmlns="http://www.w3.org/2000/svg">
<path d="M3.83594 9.6432C3.83594 13.6476 9.5526 17.8187 9.5526 17.8187C9.5526 17.8187 11.1859 19 12.0026 19C12.8193 19 14.4526 17.8187 14.4526 17.8187C14.4526 17.8187 20.1693 13.6476 20.1693 9.6432C20.1693 5.63881 15.6776 2.85531 12.0026 7.18682C8.3276 2.85531 3.83594 5.63881 3.83594 9.6432Z" fill="white"/>
<path d="M9.5526 17.8187L9.11053 18.4246L9.11307 18.4264L9.5526 17.8187ZM12.0026 7.18682L11.4307 7.67204C11.5732 7.84 11.7823 7.93682 12.0026 7.93682C12.2229 7.93682 12.432 7.84 12.5745 7.67204L12.0026 7.18682ZM14.4526 17.8187L14.8921 18.4264L14.8947 18.4246L14.4526 17.8187ZM9.5526 17.8187C9.99467 17.2128 9.99478 17.2129 9.99487 17.213C9.99488 17.213 9.99495 17.213 9.99495 17.213C9.99496 17.213 9.99488 17.213 9.99472 17.2128C9.99439 17.2126 9.99372 17.2121 9.99271 17.2114C9.99071 17.2099 9.98735 17.2074 9.9827 17.204C9.9734 17.1971 9.9589 17.1863 9.93955 17.1717C9.90084 17.1426 9.84278 17.0984 9.76812 17.0402C9.61873 16.9237 9.40331 16.7515 9.14391 16.5319C8.62399 16.0919 7.93301 15.4664 7.24456 14.723C6.55404 13.9773 5.8806 13.1284 5.38308 12.2427C4.88322 11.3528 4.58594 10.47 4.58594 9.6432H3.83594H3.08594C3.08594 10.8186 3.50324 11.9589 4.07526 12.9773C4.64961 13.9998 5.40533 14.9445 6.14398 15.7422C6.8847 16.5421 7.62288 17.2097 8.17484 17.6769C8.45138 17.9109 8.68257 18.0958 8.84581 18.2231C8.92747 18.2868 8.99222 18.3361 9.03726 18.37C9.05978 18.387 9.07738 18.4001 9.08971 18.4092C9.09587 18.4138 9.10072 18.4173 9.10421 18.4199C9.10595 18.4212 9.10735 18.4222 9.10841 18.423C9.10894 18.4234 9.10938 18.4237 9.10974 18.424C9.10991 18.4241 9.11011 18.4242 9.1102 18.4243C9.11038 18.4244 9.11054 18.4246 9.5526 17.8187ZM3.83594 9.6432H4.58594C4.58594 7.91367 5.55341 6.50963 6.828 5.98202C8.04543 5.47807 9.75552 5.69759 11.4307 7.67204L12.0026 7.18682L12.5745 6.70161C10.5747 4.34454 8.20145 3.79005 6.25429 4.59607C4.3643 5.37843 3.08594 7.36834 3.08594 9.6432H3.83594ZM9.5526 17.8187C9.11307 18.4264 9.11315 18.4265 9.11323 18.4265C9.11327 18.4265 9.11336 18.4266 9.11343 18.4267C9.11357 18.4268 9.11374 18.4269 9.11394 18.427C9.11433 18.4273 9.11482 18.4277 9.1154 18.4281C9.11658 18.4289 9.11815 18.4301 9.1201 18.4315C9.12401 18.4343 9.12947 18.4382 9.13639 18.4431C9.15023 18.4529 9.16996 18.4669 9.19498 18.4844C9.24498 18.5193 9.31632 18.5684 9.40414 18.627C9.57905 18.7438 9.8228 18.9006 10.0957 19.0585C10.3664 19.2151 10.6787 19.3804 10.9888 19.5086C11.2811 19.6293 11.6474 19.75 12.0026 19.75V19V18.25C11.9495 18.25 11.8054 18.223 11.5617 18.1223C11.3359 18.0289 11.0867 17.8989 10.847 17.7602C10.6095 17.6228 10.3939 17.4842 10.237 17.3795C10.1589 17.3274 10.0963 17.2842 10.0538 17.2545C10.0325 17.2397 10.0164 17.2283 10.0059 17.2208C10.0007 17.2171 9.99685 17.2144 9.99453 17.2127C9.99337 17.2119 9.99258 17.2113 9.99218 17.211C9.99198 17.2109 9.99187 17.2108 9.99186 17.2108C9.99186 17.2108 9.99188 17.2108 9.99193 17.2108C9.99195 17.2108 9.992 17.2109 9.99201 17.2109C9.99207 17.2109 9.99213 17.211 9.5526 17.8187ZM14.4526 17.8187C14.8947 18.4246 14.8948 18.4244 14.895 18.4243C14.8951 18.4242 14.8953 18.4241 14.8955 18.424C14.8958 18.4237 14.8963 18.4234 14.8968 18.423C14.8979 18.4222 14.8993 18.4212 14.901 18.4199C14.9045 18.4173 14.9093 18.4138 14.9155 18.4092C14.9278 18.4001 14.9454 18.387 14.9679 18.37C15.013 18.3361 15.0777 18.2868 15.1594 18.2231C15.3226 18.0958 15.5538 17.9109 15.8304 17.6769C16.3823 17.2097 17.1205 16.5421 17.8612 15.7422C18.5999 14.9445 19.3556 13.9998 19.9299 12.9773C20.502 11.9589 20.9193 10.8186 20.9193 9.6432H20.1693H19.4193C19.4193 10.47 19.122 11.3528 18.6221 12.2427C18.1246 13.1284 17.4512 13.9773 16.7606 14.723C16.0722 15.4664 15.3812 16.0919 14.8613 16.5319C14.6019 16.7515 14.3865 16.9237 14.2371 17.0402C14.1624 17.0984 14.1044 17.1426 14.0657 17.1717C14.0463 17.1863 14.0318 17.1971 14.0225 17.204C14.0179 17.2074 14.0145 17.2099 14.0125 17.2114C14.0115 17.2121 14.0108 17.2126 14.0105 17.2128C14.0103 17.213 14.0102 17.213 14.0103 17.213C14.0103 17.213 14.0103 17.213 14.0103 17.213C14.0104 17.2129 14.0105 17.2128 14.4526 17.8187ZM20.1693 9.6432H20.9193C20.9193 7.36834 19.6409 5.37843 17.7509 4.59607C15.8038 3.79005 13.4305 4.34454 11.4307 6.70161L12.0026 7.18682L12.5745 7.67204C14.2497 5.69759 15.9598 5.47807 17.1772 5.98202C18.4518 6.50963 19.4193 7.91367 19.4193 9.6432H20.1693ZM14.4526 17.8187C14.0131 17.211 14.0131 17.2109 14.0132 17.2109C14.0132 17.2109 14.0133 17.2108 14.0133 17.2108C14.0133 17.2108 14.0133 17.2108 14.0133 17.2108C14.0133 17.2108 14.0132 17.2109 14.013 17.211C14.0126 17.2113 14.0118 17.2119 14.0107 17.2127C14.0084 17.2144 14.0045 17.2171 13.9993 17.2208C13.9888 17.2283 13.9727 17.2397 13.9514 17.2545C13.9089 17.2842 13.8463 17.3274 13.7682 17.3795C13.6113 17.4842 13.3957 17.6228 13.1582 17.7602C12.9185 17.8989 12.6693 18.0289 12.4435 18.1223C12.1998 18.223 12.0557 18.25 12.0026 18.25V19V19.75C12.3578 19.75 12.7241 19.6293 13.0164 19.5086C13.3265 19.3804 13.6388 19.2151 13.9095 19.0585C14.1824 18.9006 14.4262 18.7438 14.6011 18.627C14.6889 18.5684 14.7602 18.5193 14.8102 18.4844C14.8352 18.4669 14.855 18.4529 14.8688 18.4431C14.8757 18.4382 14.8812 18.4343 14.8851 18.4315C14.8871 18.4301 14.8886 18.4289 14.8898 18.4281C14.8904 18.4277 14.8909 18.4273 14.8913 18.427C14.8915 18.4269 14.8916 18.4268 14.8918 18.4267C14.8918 18.4266 14.8919 18.4265 14.892 18.4265C14.8921 18.4265 14.8921 18.4264 14.4526 17.8187Z" fill="#DEDEDE"/>
</svg>
