<svg width="20" height="23" viewBox="0 0 20 23" fill="none" xmlns="http://www.w3.org/2000/svg">
<circle cx="10" cy="10.4004" r="8" fill="#F9502E"/>
<mask id="mask0_1_12620" style="mask-type:alpha" maskUnits="userSpaceOnUse" x="10" y="2" width="8" height="19">
<rect width="8" height="18.2" transform="matrix(1 0 0 -1 10 20.6001)" fill="#D9D9D9"/>
</mask>
<g mask="url(#mask0_1_12620)">
<path d="M2 10.4004C2 17.0004 10 20.6004 10 20.6004C10 20.6004 18 17.0004 18 10.4004C18 5.98211 14.4183 2.40039 10 2.40039C5.58172 2.40039 2 5.98211 2 10.4004Z" fill="#F9502E"/>
</g>
<path d="M13.1327 7.95264C13.6419 7.95264 14.0709 8.29311 14.2069 8.7583C14.2136 8.78029 14.2192 8.80243 14.2245 8.82471C14.2267 8.83447 14.2294 8.84414 14.2314 8.854C14.2522 8.95408 14.2592 9.0561 14.2528 9.15771V10.3999C14.6569 10.2313 15.1399 10.3138 15.4657 10.645C15.8934 11.0799 15.8878 11.7788 15.453 12.2065L13.9257 13.7095C13.8502 13.7837 13.7653 13.843 13.6767 13.8911C13.6721 13.8937 13.6676 13.8964 13.663 13.8989C13.6511 13.9052 13.6389 13.9107 13.6269 13.9165C13.4777 13.99 13.3103 14.0327 13.1327 14.0327C12.5143 14.0325 12.0136 13.531 12.0136 12.9126V11.7661L10.0644 13.6831C9.85978 13.9045 9.56826 14.0444 9.24307 14.0444C8.62451 14.0444 8.12295 13.5429 8.12295 12.9243V11.7417L6.12198 13.7104C5.68093 14.144 4.97166 14.1378 4.53799 13.6968C4.10436 13.2557 4.11066 12.5465 4.55167 12.1128L8.44815 8.28076C8.78258 7.95194 9.27094 7.87655 9.67667 8.05127C10.0799 8.22075 10.3632 8.61968 10.3632 9.08447V10.2114L12.329 8.27881C12.5355 8.07579 12.8002 7.96857 13.0683 7.95557C13.0896 7.95435 13.1111 7.95264 13.1327 7.95264Z" fill="white"/>
</svg>
