<svg width="120" height="44" viewBox="0 0 120 44" fill="none" xmlns="http://www.w3.org/2000/svg">
<path d="M12.3662 34.3154C14.6203 34.3154 16.4482 36.1247 16.4482 38.3564C16.4482 40.588 14.6203 42.3974 12.3662 42.3974C10.1123 42.3972 8.28522 40.5879 8.28516 38.3564C8.28516 36.1248 10.1123 34.3156 12.3662 34.3154ZM29.5986 34.3154C31.8527 34.3154 33.6807 36.1247 33.6807 38.3564C33.6806 40.588 31.8527 42.3974 29.5986 42.3974C27.3447 42.3972 25.5176 40.5879 25.5176 38.3564C25.5176 36.1248 27.3447 34.3156 29.5986 34.3154ZM19.5977 1.99996C20.1206 1.99623 20.6362 2.12143 21.0986 2.36324C21.5611 2.60507 21.9563 2.95593 22.248 3.3857C22.5398 3.81551 22.7191 4.31081 22.7705 4.82613C22.8219 5.34133 22.7431 5.86093 22.542 6.33883C22.3409 6.81684 22.0239 7.23862 21.6182 7.56539C22.825 8.73666 23.5573 10.3046 23.6768 11.9736C24.7977 13.0541 25.6243 14.3981 26.0801 15.8798C28.4745 16.1941 34.2432 17.7302 34.2432 25.3359C34.2432 25.6644 34.3748 25.9795 34.6094 26.2119C34.8441 26.4443 35.1632 26.5752 35.4951 26.5752C35.8269 26.575 36.1453 26.4442 36.3799 26.2119C36.6145 25.9795 36.746 25.6644 36.7461 25.3359C36.7461 14.8118 27.6671 13.5092 25.5176 13.3476V12.917C25.5176 11.4475 26.1078 10.038 27.1572 8.99898C28.2067 7.96011 29.6302 7.37691 31.1143 7.37691C33.7129 7.37697 36.2059 8.39598 38.0469 10.2119C39.8879 12.0279 40.9269 14.4924 40.9365 17.0654V23.3515C40.9365 25.7719 39.9697 28.094 38.2471 29.8115C36.5243 31.5289 34.185 32.5028 31.7402 32.5195H21.0469V32.4384C20.8974 32.4672 20.745 32.4822 20.5928 32.4834H17.8721C17.2707 32.4834 16.6938 32.2471 16.2686 31.8261C15.8433 31.4051 15.6045 30.8336 15.6045 30.2382C15.6046 29.6431 15.8435 29.0722 16.2686 28.6513C16.6938 28.2303 17.2707 27.9941 17.8721 27.9941H20.5928C20.745 27.9952 20.8974 28.0093 21.0469 28.038V23.998C21.0445 23.6296 20.8949 23.2771 20.6318 23.0166C20.3687 22.7561 20.0127 22.6078 19.6406 22.6054H8.84766C8.47555 22.6078 8.11957 22.7561 7.85645 23.0166C7.59339 23.2771 7.44378 23.6297 7.44141 23.998V25.7939C7.72301 26.003 7.95195 26.2742 8.10938 26.5859C8.26673 26.8976 8.34863 27.2414 8.34863 27.5898V30.2832C8.34863 30.8785 8.1098 31.4501 7.68457 31.8711C7.25936 32.2919 6.68232 32.5283 6.08105 32.5283C5.47998 32.5282 4.90363 32.2918 4.47852 31.8711C4.05329 31.4501 3.81348 30.8785 3.81348 30.2832V27.5898C3.8141 27.0268 4.02932 26.4841 4.41602 26.0712C4.80273 25.6584 5.33335 25.4052 5.90039 25.3623C4.72801 24.5506 3.76427 23.478 3.08691 22.2304C2.40955 20.9827 2.03698 19.5947 2 18.1787C2.01474 17.0174 2.26334 15.8709 2.73047 14.8056C3.19763 13.7403 3.87379 12.7772 4.7207 11.9736C4.84018 10.3047 5.57254 8.73666 6.7793 7.56539C6.3736 7.23864 6.05658 6.81679 5.85547 6.33883C5.65441 5.86095 5.5756 5.3413 5.62695 4.82613C5.67838 4.31081 5.85867 3.81551 6.15039 3.3857C6.44204 2.95615 6.83658 2.605 7.29883 2.36324C7.7612 2.12146 8.27692 1.99626 8.7998 1.99996C9.32282 2.00372 9.83701 2.13625 10.2959 2.38472C10.7547 2.63316 11.1443 2.98994 11.4297 3.42379C11.715 3.85772 11.8878 4.35508 11.9316 4.87105C13.4272 4.56476 14.9703 4.56479 16.4658 4.87105C16.5097 4.35507 16.6824 3.85772 16.9678 3.42379C17.2531 2.98995 17.6428 2.63317 18.1016 2.38472C18.5604 2.13625 19.0746 2.00372 19.5977 1.99996ZM10.6074 15.458C10.1263 15.458 9.6644 15.6475 9.32422 15.9843C8.98424 16.3211 8.79301 16.7777 8.79297 17.2539C8.79297 17.7302 8.98404 18.1876 9.32422 18.5244C9.6644 18.8611 10.1264 19.0498 10.6074 19.0498H12.3125C12.7163 19.0499 13.1091 18.9164 13.4277 18.6709C13.7462 18.4253 13.9733 18.0818 14.0723 17.6943C14.1399 17.4293 14.1447 17.1523 14.0879 16.8847C14.0311 16.6172 13.9138 16.366 13.7441 16.1503C13.5745 15.9348 13.3573 15.7605 13.1094 15.6406C12.8613 15.5207 12.5886 15.4579 12.3125 15.458H10.6074ZM9.73535 11.2783C9.49883 11.2322 9.25362 11.2564 9.03125 11.3486C8.80885 11.4408 8.61918 11.5967 8.48633 11.7959C8.35351 11.9951 8.2834 12.2291 8.28516 12.4677C8.28753 12.7838 8.41589 13.0861 8.6416 13.3095C8.86721 13.5329 9.17218 13.6596 9.49121 13.6621C9.73231 13.6638 9.96869 13.5943 10.1699 13.4628C10.3711 13.3313 10.529 13.144 10.6221 12.9238C10.7152 12.7036 10.7399 12.4607 10.6934 12.2265C10.6468 11.9924 10.5307 11.7771 10.3604 11.6084C10.1898 11.4395 9.97195 11.3244 9.73535 11.2783ZM14.0908 11.2783C13.8543 11.3244 13.6373 11.4396 13.4668 11.6084C13.2963 11.7772 13.1804 11.9923 13.1338 12.2265C13.0872 12.4608 13.112 12.7036 13.2051 12.9238C13.2982 13.1438 13.4552 13.3314 13.6562 13.4628C13.8575 13.5944 14.0938 13.6638 14.335 13.6621C14.6541 13.6597 14.9599 13.533 15.1855 13.3095C15.4111 13.0861 15.5386 12.7836 15.541 12.4677C15.5428 12.2291 15.4727 11.9951 15.3398 11.7959C15.207 11.5967 15.0173 11.4407 14.7949 11.3486C14.5726 11.2565 14.3273 11.2322 14.0908 11.2783Z" fill="#F9502E"/>
<path d="M92.1707 22.6566C91.4014 22.63 90.7647 22.5504 90.2606 22.4178C89.7831 22.2586 89.3985 22.0464 89.1066 21.7811C88.8148 21.4893 88.6026 21.1312 88.47 20.7067C88.3638 20.2557 88.2975 19.7251 88.271 19.115C88.271 18.8762 88.2577 18.4915 88.2312 17.961C88.2312 17.4039 88.2312 16.7937 88.2312 16.1305C88.2312 15.4407 88.2179 14.7245 88.1914 13.9817C88.1914 13.2388 88.1914 12.5226 88.1914 11.8328C88.1914 11.1431 88.1914 10.5329 88.1914 10.0023C88.1914 9.47176 88.1914 9.07383 88.1914 8.80854C88.1914 7.82698 88.4567 7.09744 88.9873 6.61992C89.5444 6.11587 90.2209 5.86385 91.0167 5.86385C91.8656 5.86385 92.5554 6.11587 93.086 6.61992C93.6431 7.09744 93.9216 7.84024 93.9216 8.84833V10.4003C94.4257 10.4003 95.0226 10.4003 95.7123 10.4003C96.4021 10.4003 97.1051 10.4003 97.8214 10.4003C98.5376 10.4003 99.2406 10.4003 99.9304 10.4003C100.62 10.4003 101.217 10.4003 101.721 10.4003V8.60957C101.721 7.68107 102 6.99132 102.557 6.54033C103.114 6.08934 103.804 5.86385 104.626 5.86385C105.422 5.86385 106.098 6.07608 106.655 6.50054C107.213 6.925 107.491 7.57495 107.491 8.4504C107.491 8.79528 107.491 9.47176 107.491 10.4799C107.518 11.4614 107.531 12.5226 107.531 13.6633C107.531 14.804 107.531 15.8917 107.531 16.9263C107.531 17.9344 107.518 18.6374 107.491 19.0354C107.465 19.6455 107.385 20.1761 107.252 20.6271C107.12 21.0516 106.894 21.4097 106.576 21.7015C106.257 21.9668 105.82 22.179 105.263 22.3382C104.706 22.4974 103.976 22.5902 103.074 22.6168C102.384 22.6698 101.575 22.7096 100.647 22.7361C99.7447 22.7361 98.8029 22.7494 97.8214 22.7759C96.8663 22.7759 95.898 22.7759 94.9164 22.7759C93.9349 22.7494 93.0196 22.7096 92.1707 22.6566ZM93.9216 17.1651C93.9481 17.5896 94.0277 17.8416 94.1604 17.9212C94.293 18.0008 94.5848 18.0538 95.0358 18.0803C95.8847 18.1069 96.7867 18.1201 97.7418 18.1201C98.6968 18.1201 99.559 18.0936 100.328 18.0406C100.62 18.014 100.859 18.0008 101.045 18.0008C101.23 17.9742 101.376 17.9477 101.482 17.9212C101.588 17.8681 101.655 17.7885 101.681 17.6824C101.734 17.5498 101.761 17.3773 101.761 17.1651V14.7377C101.257 14.7377 100.66 14.7377 99.9702 14.7377C99.2804 14.7112 98.5642 14.6979 97.8214 14.6979C97.1051 14.6979 96.4021 14.7112 95.7123 14.7377C95.0226 14.7377 94.4257 14.7377 93.9216 14.7377V17.1651ZM98.9754 31.4508C98.9754 30.257 99.1876 29.1826 99.612 28.2276C100.063 27.2726 100.673 26.4634 101.443 25.8002C102.238 25.137 103.193 24.6329 104.308 24.2881C105.422 23.9432 106.655 23.7708 108.008 23.7708C109.255 23.7708 110.396 23.9432 111.431 24.2881C112.492 24.6329 113.394 25.137 114.137 25.8002C114.906 26.4634 115.503 27.2726 115.927 28.2276C116.352 29.1561 116.564 30.2305 116.564 31.4508C116.564 32.5385 116.365 33.5466 115.967 34.4751C115.596 35.4036 115.039 36.2128 114.296 36.9025C113.553 37.5923 112.651 38.1361 111.59 38.534C110.555 38.932 109.361 39.1309 108.008 39.1309C106.655 39.1309 105.422 38.932 104.308 38.534C103.22 38.1361 102.278 37.5923 101.482 36.9025C100.686 36.2128 100.063 35.4036 99.612 34.4751C99.1876 33.5466 98.9754 32.5385 98.9754 31.4508ZM104.865 31.3713C104.865 32.1406 105.143 32.7773 105.7 33.2813C106.257 33.7588 106.987 33.9976 107.889 33.9976C108.818 33.9976 109.56 33.7588 110.117 33.2813C110.701 32.7773 110.993 32.1406 110.993 31.3713C110.993 30.5223 110.714 29.8724 110.157 29.4214C109.6 28.9439 108.844 28.7051 107.889 28.7051C106.987 28.7051 106.257 28.9306 105.7 29.3816C105.143 29.8061 104.865 30.4693 104.865 31.3713ZM113.022 8.25144C112.969 7.13723 113.182 6.30157 113.659 5.74447C114.163 5.16084 114.906 4.86902 115.887 4.86902C116.789 4.86902 117.519 5.14757 118.076 5.70468C118.66 6.23525 118.978 7.13723 119.031 8.41061C119.084 9.76357 119.111 10.9706 119.111 12.0318C119.137 13.0664 119.15 14.048 119.15 14.9765C119.15 15.8785 119.137 16.7406 119.111 17.563C119.111 18.3854 119.097 19.2343 119.071 20.1098C119.018 21.3832 118.739 22.3913 118.235 23.1341C117.731 23.8769 116.975 24.2483 115.967 24.2483C114.959 24.2483 114.216 23.9565 113.739 23.3728C113.288 22.7627 113.102 21.7811 113.182 20.4281C113.208 19.7384 113.221 18.9027 113.221 17.9212C113.248 16.9396 113.248 15.905 113.221 14.8173C113.221 13.7031 113.195 12.5756 113.142 11.4349C113.115 10.2942 113.075 9.233 113.022 8.25144Z" fill="#F9502E"/>
<path d="M69.9288 38.8922C69.1595 38.8922 68.43 38.6269 67.7402 38.0964C67.077 37.5658 66.7188 36.7832 66.6658 35.7486C66.6658 35.4302 66.6525 35.0456 66.626 34.5946C66.626 34.1436 66.6127 33.6528 66.5862 33.1222C66.5862 32.5916 66.5862 32.0345 66.5862 31.4509C66.5862 30.8673 66.5862 30.2836 66.5862 29.7C64.6496 29.6735 62.7661 29.6337 60.9356 29.5806C59.1316 29.5276 57.5001 29.4347 56.041 29.3021C54.8207 29.196 53.9718 28.9042 53.4943 28.4266C53.0167 27.9226 52.8045 27.2859 52.8576 26.5166C52.9106 25.7472 53.1626 25.1238 53.6136 24.6463C54.0912 24.1422 54.9666 23.9167 56.24 23.9698C58.3888 24.0494 60.6172 24.1157 62.9252 24.1688C65.2598 24.1953 67.581 24.2086 69.889 24.2086C72.2236 24.2086 74.5316 24.1953 76.813 24.1688C79.0945 24.1157 81.2699 24.0361 83.3391 23.93C84.6921 23.8769 85.6339 24.129 86.1644 24.6861C86.7215 25.2167 87.0001 25.8931 87.0001 26.7155C87.0001 27.4849 86.7879 28.0818 86.3634 28.5062C85.9655 28.9042 85.2625 29.1562 84.2544 29.2623C83.0871 29.3949 81.5352 29.501 79.5986 29.5806C77.6885 29.6337 75.5927 29.6735 73.3112 29.7C73.2847 30.5489 73.2582 31.4244 73.2317 32.3264C73.2317 33.2018 73.2317 33.9977 73.2317 34.714C73.2317 35.4302 73.1255 36.0404 72.9133 36.5444C72.7276 37.075 72.4756 37.5127 72.1572 37.8576C71.8654 38.2025 71.5206 38.4545 71.1226 38.6137C70.7247 38.7994 70.3268 38.8922 69.9288 38.8922ZM56.3992 16.1703C56.3992 15.1622 56.3992 14.3266 56.3992 13.6634C56.3992 13.0002 56.3992 12.4298 56.3992 11.9523C56.4257 11.4482 56.439 10.9972 56.439 10.5993C56.4655 10.2014 56.5053 9.75038 56.5583 9.24633C56.6379 8.37089 56.9165 7.72093 57.394 7.29647C57.8715 6.84548 58.6541 6.60672 59.7418 6.58019C61.4131 6.55366 63.1242 6.52714 64.8751 6.50061C66.6525 6.47408 68.4167 6.46081 70.1676 6.46081C71.9185 6.43429 73.6296 6.43429 75.3009 6.46081C76.9722 6.46081 78.5507 6.50061 80.0363 6.58019C81.124 6.63325 81.9066 6.87201 82.3841 7.29647C82.8616 7.72093 83.1402 8.37089 83.2197 9.24633C83.2463 9.75038 83.2728 10.2014 83.2993 10.5993C83.3259 10.9972 83.3391 11.4482 83.3391 11.9523C83.3656 12.4298 83.3789 13.0002 83.3789 13.6634C83.3789 14.3266 83.3789 15.1622 83.3789 16.1703C83.3789 17.1254 83.3126 17.9345 83.1799 18.5977C83.0738 19.2344 82.8351 19.765 82.4637 20.1894C82.0923 20.5874 81.5617 20.8925 80.8719 21.1047C80.1822 21.3169 79.2537 21.4628 78.0864 21.5424C77.0783 21.5955 75.8978 21.6353 74.5448 21.6618C73.1919 21.6883 71.7726 21.7016 70.287 21.7016C68.8014 21.7016 67.3025 21.6883 65.7903 21.6618C64.3047 21.6353 62.9385 21.6087 61.6916 21.5822C60.5244 21.5557 59.5959 21.4363 58.9061 21.2241C58.2164 21.0118 57.6858 20.6935 57.3144 20.269C56.943 19.818 56.691 19.2609 56.5583 18.5977C56.4522 17.9345 56.3992 17.1254 56.3992 16.1703ZM62.4079 12.5492C62.3814 13.0532 62.3681 13.4644 62.3681 13.7828C62.3947 14.0746 62.4212 14.4725 62.4477 14.9765C62.5008 15.5337 62.6202 15.9051 62.8059 16.0908C63.0181 16.2765 63.4293 16.3826 64.0394 16.4091C64.8088 16.4356 65.6975 16.4622 66.7056 16.4887C67.7402 16.4887 68.7881 16.4887 69.8492 16.4887C70.9369 16.4887 71.9981 16.4887 73.0327 16.4887C74.0673 16.4622 74.9693 16.4356 75.7386 16.4091C76.3488 16.3826 76.7467 16.2765 76.9324 16.0908C77.1447 15.9051 77.2773 15.5337 77.3304 14.9765C77.3569 14.4725 77.3701 14.0746 77.3701 13.7828C77.3967 13.4644 77.3967 13.0532 77.3701 12.5492C77.3436 12.2573 77.2773 12.0584 77.1712 11.9523C77.0916 11.8462 76.8794 11.7798 76.5345 11.7533C75.8447 11.7002 74.8897 11.6737 73.6694 11.6737C72.4756 11.6472 71.2155 11.6339 69.889 11.6339C68.5891 11.6339 67.329 11.6472 66.1087 11.6737C64.8884 11.7002 63.9333 11.7268 63.2436 11.7533C62.8987 11.7798 62.6732 11.8462 62.5671 11.9523C62.4875 12.0584 62.4345 12.2573 62.4079 12.5492Z" fill="#F9502E"/>
</svg>
