<svg width="59" height="61" viewBox="0 0 59 61" fill="none" xmlns="http://www.w3.org/2000/svg">
<path d="M15.5088 48.3478C18.8811 48.3478 21.6152 51.0549 21.6152 54.3937C21.6152 57.7324 18.8811 60.4386 15.5088 60.4386C12.1367 60.4383 9.40338 57.7323 9.40332 54.3937C9.40332 51.055 12.1367 48.348 15.5088 48.3478ZM41.29 48.3478C44.6624 48.3478 47.3965 51.0549 47.3965 54.3937C47.3964 57.7324 44.6623 60.4386 41.29 60.4386C37.918 60.4383 35.1846 57.7323 35.1846 54.3937C35.1846 51.055 37.9179 48.348 41.29 48.3478ZM26.3271 0.000123645C27.1096 -0.00550723 27.8814 0.181318 28.5732 0.543092C29.265 0.904834 29.8556 1.43053 30.292 2.07337C30.7284 2.71636 30.9973 3.45673 31.0742 4.22766C31.1511 4.9985 31.0342 5.77628 30.7334 6.49133C30.4325 7.20645 29.9576 7.83743 29.3506 8.3263C31.1562 10.0788 32.252 12.4248 32.4307 14.922C34.1077 16.5386 35.3446 18.5489 36.0264 20.7657C39.6087 21.236 48.2382 23.5337 48.2383 34.9122C48.2383 35.4039 48.4359 35.8761 48.7871 36.2238C49.1382 36.5712 49.6149 36.7667 50.1113 36.7667C50.6078 36.7666 51.0845 36.5714 51.4355 36.2238C51.7867 35.8761 51.9834 35.4039 51.9834 34.9122C51.9833 19.1674 38.4005 17.2195 35.1846 16.9777V16.3331C35.1846 14.1349 36.0668 12.0263 37.6367 10.4718C39.2067 8.91743 41.3364 8.04419 43.5566 8.04407C47.4446 8.04404 51.1744 9.56947 53.9287 12.2863C56.683 15.0031 58.2385 18.6899 58.2529 22.5392V31.9435C58.253 35.565 56.8061 39.0399 54.2285 41.6095C51.6509 44.1791 48.151 45.6345 44.4932 45.6593H28.4951V45.5392C28.2716 45.5822 28.0441 45.6039 27.8164 45.6056H23.7461C22.8464 45.6056 21.9838 45.252 21.3477 44.6222C20.7115 43.9923 20.3535 43.1379 20.3535 42.2472C20.3536 41.3565 20.7115 40.502 21.3477 39.8722C21.9838 39.2426 22.8466 38.8888 23.7461 38.8888H27.8164C28.0441 38.8905 28.2716 38.9132 28.4951 38.9562V32.9103C28.4915 32.3593 28.2686 31.8322 27.875 31.4425C27.4813 31.0528 26.9483 30.8318 26.3916 30.8282H10.2451C9.68841 30.8318 9.15538 31.0528 8.76172 31.4425C8.36819 31.8322 8.14526 32.3593 8.1416 32.9103V35.5978C8.56283 35.9106 8.90514 36.3161 9.14062 36.7823C9.37609 37.2486 9.49804 37.763 9.49805 38.2843V42.3146C9.49805 43.2053 9.14106 44.0597 8.50488 44.6896C7.86878 45.3194 7.00602 45.6729 6.10645 45.673C5.20675 45.673 4.34321 45.3194 3.70703 44.6896C3.07096 44.0597 2.71387 43.2052 2.71387 42.3146V38.2843C2.71482 37.4421 3.03682 36.6314 3.61523 36.0138C4.19379 35.3962 4.98662 35.0165 5.83496 34.9523C4.08085 33.7378 2.63839 32.1334 1.625 30.2667C0.611604 28.4001 0.0553307 26.3237 0 24.2052C0.0220029 22.4678 0.392934 20.7521 1.0918 19.1583C1.79069 17.5646 2.8033 16.1242 4.07031 14.922C4.24897 12.4247 5.34546 10.0788 7.15137 8.3263C6.54433 7.83742 6.06849 7.20649 5.76758 6.49133C5.46679 5.77629 5.34984 4.99849 5.42676 4.22766C5.50371 3.45673 5.77256 2.71636 6.20898 2.07337C6.6454 1.4305 7.23594 0.904844 7.92773 0.543092C8.61965 0.181288 9.39136 -0.00550747 10.1738 0.000123645C10.9562 0.00577577 11.7247 0.203707 12.4111 0.575319C13.0977 0.947058 13.6805 1.48174 14.1074 2.13098C14.5343 2.7802 14.7928 3.52407 14.8584 4.29602C17.0962 3.83768 19.4048 3.83769 21.6426 4.29602C21.7082 3.52409 21.9667 2.78019 22.3936 2.13098C22.8205 1.48174 23.4033 0.947058 24.0898 0.575319C24.7763 0.203694 25.5448 0.00579381 26.3271 0.000123645ZM12.877 20.1349C12.1573 20.1349 11.4669 20.4182 10.958 20.922C10.4493 21.4258 10.1631 22.109 10.1631 22.8214C10.1631 23.534 10.4491 24.2179 10.958 24.7218C11.4669 25.2256 12.1573 25.5079 12.877 25.5079H15.4277C16.032 25.5082 16.6198 25.309 17.0967 24.9415C17.5733 24.5741 17.9125 24.0595 18.0605 23.4796C18.1617 23.0831 18.1699 22.6689 18.085 22.2687C18 21.8685 17.8242 21.4926 17.5703 21.17C17.3164 20.8475 16.9913 20.5868 16.6201 20.4074C16.2489 20.2279 15.8408 20.1347 15.4277 20.1349H12.877ZM11.5732 13.881C11.2193 13.812 10.8523 13.8495 10.5195 13.9874C10.1869 14.1253 9.90281 14.3575 9.7041 14.6554C9.50534 14.9535 9.40064 15.3041 9.40332 15.6613C9.40693 16.134 9.59792 16.5868 9.93555 16.921C10.2732 17.2553 10.7305 17.4438 11.208 17.4474C11.5688 17.45 11.9225 17.3463 12.2236 17.1495C12.5244 16.9528 12.7592 16.6721 12.8984 16.3429C13.0377 16.0135 13.0755 15.6503 13.0059 15.2999C12.9362 14.9497 12.7627 14.6276 12.5078 14.3751C12.2527 14.1226 11.9272 13.95 11.5732 13.881ZM19.1426 13.9874C18.8098 13.8495 18.4428 13.812 18.0889 13.881C17.735 13.95 17.4103 14.1226 17.1553 14.3751C16.9002 14.6277 16.726 14.9495 16.6562 15.2999C16.5866 15.6503 16.6244 16.0135 16.7637 16.3429C16.9029 16.6721 17.1377 16.9528 17.4385 17.1495C17.7396 17.3463 18.0933 17.45 18.4541 17.4474C18.9316 17.4439 19.3889 17.2553 19.7266 16.921C20.0642 16.5868 20.2552 16.134 20.2588 15.6613C20.2615 15.3041 20.1568 14.9535 19.958 14.6554C19.7593 14.3575 19.4752 14.1253 19.1426 13.9874Z" fill="#F9502E"/>
</svg>
