<svg width="107" height="56" viewBox="0 0 107 56" fill="none" xmlns="http://www.w3.org/2000/svg">
<path d="M63.2789 28.6254C62.0408 28.5827 61.0162 28.4547 60.205 28.2412C59.4366 27.985 58.8175 27.6435 58.3479 27.2166C57.8783 26.747 57.5367 26.1706 57.3233 25.4875C57.1525 24.7618 57.0458 23.9079 57.0031 22.926C57.0031 22.5417 56.9817 21.9227 56.939 21.0688C56.939 20.1723 56.939 19.1904 56.939 18.123C56.939 17.013 56.9177 15.8603 56.875 14.6649C56.875 13.4695 56.875 12.3168 56.875 11.2068C56.875 10.0968 56.875 9.11488 56.875 8.26103C56.875 7.40718 56.875 6.76679 56.875 6.33986C56.875 4.76023 57.3019 3.58619 58.1558 2.81772C59.0523 2.00656 60.141 1.60098 61.4218 1.60098C62.7879 1.60098 63.8979 2.00656 64.7518 2.81772C65.6483 3.58619 66.0966 4.78158 66.0966 6.4039V8.90142C66.9078 8.90142 67.8684 8.90142 68.9784 8.90142C70.0884 8.90142 71.2197 8.90142 72.3724 8.90142C73.5251 8.90142 74.6565 8.90142 75.7665 8.90142C76.8765 8.90142 77.8371 8.90142 78.6483 8.90142V6.01966C78.6483 4.52542 79.0965 3.41541 79.9931 2.68964C80.8896 1.96386 81.9996 1.60098 83.3231 1.60098C84.6039 1.60098 85.6925 1.94252 86.5891 2.6256C87.4856 3.30868 87.9339 4.35465 87.9339 5.76351C87.9339 6.31852 87.9339 7.40718 87.9339 9.0295C87.9766 10.6091 87.998 12.3168 87.998 14.1526C87.998 15.9884 87.998 17.7388 87.998 19.4038C87.998 21.0261 87.9766 22.1575 87.9339 22.7979C87.8912 23.7798 87.7632 24.6337 87.5497 25.3594C87.3362 26.0425 86.9733 26.6189 86.461 27.0885C85.9487 27.5154 85.2443 27.857 84.3477 28.1131C83.4512 28.3693 82.2771 28.5187 80.8256 28.5614C79.7156 28.6468 78.4135 28.7108 76.9192 28.7535C75.4677 28.7535 73.9521 28.7749 72.3724 28.8176C70.8355 28.8176 69.2772 28.8176 67.6976 28.8176C66.118 28.7749 64.6451 28.7108 63.2789 28.6254ZM66.0966 19.7881C66.1393 20.4711 66.2674 20.8767 66.4809 21.0048C66.6943 21.1329 67.1639 21.2183 67.8897 21.2609C69.2559 21.3036 70.7074 21.325 72.2444 21.325C73.7813 21.325 75.1688 21.2823 76.4069 21.1969C76.8765 21.1542 77.2608 21.1329 77.5596 21.1329C77.8584 21.0902 78.0933 21.0475 78.264 21.0048C78.4348 20.9194 78.5415 20.7913 78.5842 20.6206C78.6696 20.4071 78.7123 20.1296 78.7123 19.7881V15.8817C77.9011 15.8817 76.9406 15.8817 75.8305 15.8817C74.7205 15.839 73.5678 15.8176 72.3724 15.8176C71.2197 15.8176 70.0884 15.839 68.9784 15.8817C67.8684 15.8817 66.9078 15.8817 66.0966 15.8817V19.7881ZM74.2296 42.7781C74.2296 40.8569 74.5711 39.1278 75.2542 37.5909C75.98 36.054 76.9619 34.7518 78.2 33.6845C79.4808 32.6172 81.0177 31.806 82.8108 31.251C84.6039 30.696 86.5891 30.4185 88.7664 30.4185C90.773 30.4185 92.6088 30.696 94.2738 31.251C95.9815 31.806 97.433 32.6172 98.6284 33.6845C99.8665 34.7518 100.827 36.054 101.51 37.5909C102.193 39.0851 102.535 40.8142 102.535 42.7781C102.535 44.5285 102.215 46.1508 101.574 47.645C100.977 49.1393 100.08 50.4414 98.8846 51.5514C97.6892 52.6614 96.2376 53.5366 94.5299 54.177C92.8649 54.8174 90.9438 55.1376 88.7664 55.1376C86.5891 55.1376 84.6039 54.8174 82.8108 54.177C81.0604 53.5366 79.5448 52.6614 78.264 51.5514C76.9832 50.4414 75.98 49.1393 75.2542 47.645C74.5711 46.1508 74.2296 44.5285 74.2296 42.7781ZM83.7073 42.65C83.7073 43.8881 84.1556 44.9127 85.0522 45.7239C85.9487 46.4923 87.1228 46.8765 88.5743 46.8765C90.0686 46.8765 91.2639 46.4923 92.1605 45.7239C93.0997 44.9127 93.5694 43.8881 93.5694 42.65C93.5694 41.2838 93.1211 40.2378 92.2245 39.5121C91.328 38.7436 90.1112 38.3594 88.5743 38.3594C87.1228 38.3594 85.9487 38.7222 85.0522 39.448C84.1556 40.1311 83.7073 41.1984 83.7073 42.65ZM96.8353 5.44332C96.75 3.65022 97.0915 2.3054 97.86 1.40886C98.6711 0.46962 99.8665 0 101.446 0C102.898 0 104.072 0.448274 104.968 1.34482C105.908 2.19867 106.42 3.65022 106.505 5.69947C106.591 7.8768 106.633 9.81931 106.633 11.527C106.676 13.192 106.697 14.7717 106.697 16.2659C106.697 17.7175 106.676 19.105 106.633 20.4284C106.633 21.7519 106.612 23.1181 106.569 24.5269C106.484 26.5762 106.036 28.1985 105.224 29.3939C104.413 30.5893 103.197 31.187 101.574 31.187C99.9519 31.187 98.7565 30.7174 97.988 29.7781C97.2623 28.7962 96.9634 27.2166 97.0915 25.0393C97.1342 23.9292 97.1555 22.5844 97.1555 21.0048C97.1982 19.4252 97.1982 17.7602 97.1555 16.0098C97.1555 14.2167 97.1128 12.4022 97.0275 10.5664C96.9848 8.73065 96.9207 7.02295 96.8353 5.44332Z" fill="#F9502E"/>
<path d="M27.4855 54.7531C26.2475 54.7531 25.0734 54.3262 23.9634 53.4723C22.8961 52.6185 22.3197 51.359 22.2343 49.694C22.2343 49.1817 22.213 48.5627 22.1703 47.8369C22.1703 47.1111 22.149 46.3213 22.1063 45.4674C22.1063 44.6136 22.1063 43.717 22.1063 42.7778C22.1063 41.8386 22.1063 40.8993 22.1063 39.9601C18.9897 39.9174 15.9585 39.8534 13.0127 39.768C10.1096 39.6826 7.48403 39.5332 5.13593 39.3197C3.17207 39.1489 1.8059 38.6793 1.03743 37.9108C0.268964 37.0997 -0.0725776 36.0751 0.0128078 34.837C0.0981932 33.5989 0.503774 32.5956 1.22955 31.8271C1.99802 31.016 3.40688 30.6531 5.45612 30.7385C8.91423 30.8666 12.5004 30.9733 16.2147 31.0587C19.9716 31.1014 23.7072 31.1227 27.4215 31.1227C31.1785 31.1227 34.8927 31.1014 38.5643 31.0587C42.2359 30.9733 45.7367 30.8452 49.0667 30.6744C51.244 30.5891 52.7596 30.9946 53.6135 31.8912C54.51 32.745 54.9583 33.8337 54.9583 35.1572C54.9583 36.3953 54.6167 37.3558 53.9337 38.0389C53.2933 38.6793 52.1619 39.0849 50.5396 39.2557C48.6611 39.4691 46.1636 39.6399 43.047 39.768C39.9731 39.8534 36.6004 39.9174 32.9289 39.9601C32.8862 41.3263 32.8435 42.7351 32.8008 44.1867C32.8008 45.5955 32.8008 46.8763 32.8008 48.029C32.8008 49.1817 32.63 50.1636 32.2885 50.9748C31.9896 51.8287 31.584 52.5331 31.0717 53.0881C30.6021 53.6431 30.0471 54.0487 29.4067 54.3048C28.7663 54.6037 28.1259 54.7531 27.4855 54.7531ZM5.71228 18.1868C5.71228 16.5645 5.71228 15.2197 5.71228 14.1524C5.71228 13.0851 5.71228 12.1672 5.71228 11.3987C5.75497 10.5875 5.77632 9.86176 5.77632 9.22137C5.81901 8.58098 5.88305 7.85521 5.96844 7.04404C6.09651 5.63519 6.54479 4.58922 7.31326 3.90613C8.08172 3.18036 9.34116 2.79613 11.0916 2.75343C13.7812 2.71074 16.5349 2.66805 19.3526 2.62535C22.213 2.58266 25.0521 2.56132 27.8698 2.56132C30.6875 2.51862 33.4412 2.51862 36.1308 2.56132C38.8204 2.56132 41.3607 2.62535 43.7514 2.75343C45.5019 2.83882 46.7613 3.22305 47.5298 3.90613C48.2982 4.58922 48.7465 5.63519 48.8746 7.04404C48.9173 7.85521 48.96 8.58098 49.0027 9.22137C49.0453 9.86176 49.0667 10.5875 49.0667 11.3987C49.1094 12.1672 49.1307 13.0851 49.1307 14.1524C49.1307 15.2197 49.1307 16.5645 49.1307 18.1868C49.1307 19.7238 49.024 21.0259 48.8105 22.0932C48.6398 23.1178 48.2555 23.9717 47.6578 24.6548C47.0601 25.2952 46.2063 25.7861 45.0963 26.1277C43.9863 26.4692 42.492 26.704 40.6135 26.8321C38.9912 26.9175 37.0914 26.9815 34.9141 27.0242C32.7367 27.0669 30.4527 27.0883 28.0619 27.0883C25.6711 27.0883 23.259 27.0669 20.8255 27.0242C18.4347 26.9815 16.236 26.9388 14.2295 26.8961C12.351 26.8534 10.8567 26.6613 9.74674 26.3198C8.63673 25.9782 7.78287 25.4659 7.18518 24.7829C6.58748 24.0571 6.1819 23.1605 5.96844 22.0932C5.79767 21.0259 5.71228 19.7238 5.71228 18.1868ZM15.3822 12.3593C15.3395 13.1704 15.3181 13.8322 15.3181 14.3445C15.3608 14.8141 15.4035 15.4545 15.4462 16.2657C15.5316 17.1622 15.7237 17.7599 16.0226 18.0588C16.3641 18.3576 17.0258 18.5284 18.0078 18.5711C19.2459 18.6138 20.6761 18.6565 22.2984 18.6991C23.9634 18.6991 25.6498 18.6991 27.3575 18.6991C29.1079 18.6991 30.8156 18.6991 32.4806 18.6991C34.1456 18.6565 35.5971 18.6138 36.8352 18.5711C37.8172 18.5284 38.4576 18.3576 38.7564 18.0588C39.0979 17.7599 39.3114 17.1622 39.3968 16.2657C39.4395 15.4545 39.4608 14.8141 39.4608 14.3445C39.5035 13.8322 39.5035 13.1704 39.4608 12.3593C39.4181 11.8897 39.3114 11.5695 39.1406 11.3987C39.0126 11.2279 38.671 11.1212 38.116 11.0785C37.006 10.9931 35.4691 10.9504 33.5052 10.9504C31.584 10.9077 29.5561 10.8864 27.4215 10.8864C25.3296 10.8864 23.3017 10.9077 21.3378 10.9504C19.3739 10.9931 17.837 11.0358 16.727 11.0785C16.172 11.1212 15.8091 11.2279 15.6383 11.3987C15.5102 11.5695 15.4249 11.8897 15.3822 12.3593Z" fill="#F9502E"/>
</svg>
